<svg xmlns="http://www.w3.org/2000/svg" viewBox="0 0 527.31 259.77">
    <g id="our" fill="var(--neutral-back)">
        <path
            d="M28.78,52.22a24.29,24.29,0,0,1-9.88-2,25.18,25.18,0,0,1-8.08-5.59,26.39,26.39,0,0,1-7.41-18.5,26.3,26.3,0,0,1,7.41-18.5A25.37,25.37,0,0,1,18.9,2a24.45,24.45,0,0,1,9.88-2,24.46,24.46,0,0,1,9.89,2,25.37,25.37,0,0,1,8.08,5.6,26.3,26.3,0,0,1,7.41,18.5,26.39,26.39,0,0,1-7.41,18.5,25.18,25.18,0,0,1-8.08,5.59A24.3,24.3,0,0,1,28.78,52.22Zm0-6a17.75,17.75,0,0,0,7.37-1.53,18.18,18.18,0,0,0,6-4.25,19.7,19.7,0,0,0,4-6.41,21.75,21.75,0,0,0,1.42-7.94,21.8,21.8,0,0,0-1.42-7.95,19.66,19.66,0,0,0-4-6.4,18.36,18.36,0,0,0-6-4.26A17.9,17.9,0,0,0,28.78,6,17.86,17.86,0,0,0,21.42,7.5a18.36,18.36,0,0,0-6,4.26,19.49,19.49,0,0,0-4,6.4,21.8,21.8,0,0,0-1.42,8,21.75,21.75,0,0,0,1.42,7.94,19.54,19.54,0,0,0,4,6.41,18.18,18.18,0,0,0,6,4.25A17.7,17.7,0,0,0,28.78,46.24Z"></path>
        <path
            d="M83.38,52.22q-8.91,0-13.42-4.76T65.44,33.28V.92h6.2v30.8q0,7.35,2.88,10.87t8.86,3.53q6,0,8.86-3.53t2.88-10.87V.92h6.22V33.28q0,9.42-4.51,14.18T83.38,52.22Z"></path>
        <path
            d="M116.1,51.24V.92h14.28A20.15,20.15,0,0,1,139,2.65a13.12,13.12,0,0,1,5.66,5,14.6,14.6,0,0,1,2,7.79,15.37,15.37,0,0,1-1.55,7.05,13.2,13.2,0,0,1-4.44,5,16.44,16.44,0,0,1-6.88,2.56l16.66,21.17h-7.87L127,30.71h-4.73V51.24Zm6.19-25.8h6.41a14.8,14.8,0,0,0,6.19-1.19,9.11,9.11,0,0,0,4-3.4,9.67,9.67,0,0,0,1.4-5.26,8.75,8.75,0,0,0-3.07-7.11q-3.06-2.57-8.52-2.56h-6.41Z"></path>
    </g>
    <g id="brand" fill="var(--neutral-back)">
        <path
            d="M174.57,51.24V.92h11.77q7.32,0,11.41,3.24t4.09,9.44q0,8.17-7,11.29a13.66,13.66,0,0,1,8.5,4.07,12.36,12.36,0,0,1,3,8.62,13.53,13.53,0,0,1-1.92,7.33,12.32,12.32,0,0,1-5.49,4.7,20.32,20.32,0,0,1-8.51,1.63Zm6.19-28.36h4.33q5.22,0,8-2.22a7.63,7.63,0,0,0,2.79-6.36A7.58,7.58,0,0,0,193.12,8c-1.86-1.46-4.53-2.18-8-2.18h-4.33Zm0,23.42h7.75Q194,46.3,197,44a7.93,7.93,0,0,0,2.93-6.61,8.12,8.12,0,0,0-3-6.72q-3-2.4-8.4-2.4h-7.75Z"></path>
        <path
            d="M218.8,51.24V.92h14.27a20.12,20.12,0,0,1,8.66,1.73,13.06,13.06,0,0,1,5.66,5,14.61,14.61,0,0,1,2,7.79,15.37,15.37,0,0,1-1.56,7.05,13.09,13.09,0,0,1-4.43,5,16.54,16.54,0,0,1-6.88,2.56l16.65,21.17H245.3L229.72,30.71H225V51.24ZM225,25.44h6.4a14.76,14.76,0,0,0,6.19-1.19,9.05,9.05,0,0,0,4-3.4,9.59,9.59,0,0,0,1.4-5.26,8.77,8.77,0,0,0-3.06-7.11c-2-1.71-4.89-2.56-8.53-2.56H225Z"></path>
        <path
            d="M260.8,51.24,280.71.92h5.77l19.91,50.32h-6.68l-5.58-14.67H273.06l-5.61,14.67Zm14.36-20.13H292L283.58,9.18Z"></path>
        <path
            d="M317.5,51.24V.92h6.19l25.43,39.86V.92h6.2V51.24h-6.2L323.69,11.41V51.24Z"></path>
        <path
            d="M370.87,51.24V.92H383a25.64,25.64,0,0,1,10,1.92A25,25,0,0,1,401,8.19a24.66,24.66,0,0,1,5.4,8,25.22,25.22,0,0,1,1.93,9.9A25.26,25.26,0,0,1,406.4,36,24.51,24.51,0,0,1,401,44a24.89,24.89,0,0,1-8.08,5.33,25.77,25.77,0,0,1-10,1.91Zm6.19-5.55h5.28A19.57,19.57,0,0,0,390,44.21a18.87,18.87,0,0,0,10.28-10.38,20.18,20.18,0,0,0,1.47-7.75,20.14,20.14,0,0,0-1.47-7.75,18.77,18.77,0,0,0-4.1-6.22A19.15,19.15,0,0,0,390,8a19.4,19.4,0,0,0-7.65-1.49h-5.28Z"></path>
    </g>
    <g id="is" fill="var(--neutral-back)">
        <path d="M437.69,51.24V.92h6.19V51.24Z"></path>
        <path
            d="M474.05,52.22a19.82,19.82,0,0,1-6.74-1.06,20.71,20.71,0,0,1-5.09-2.57,22.53,22.53,0,0,1-3.51-3,27.83,27.83,0,0,1-2-2.33l3.38-4.82c.47.57,1.1,1.3,1.89,2.2a21,21,0,0,0,2.93,2.68A16.31,16.31,0,0,0,469,45.57a14.15,14.15,0,0,0,5.24.91,12.62,12.62,0,0,0,5-1,8.47,8.47,0,0,0,3.61-2.9,8.08,8.08,0,0,0,1.36-4.76,8.11,8.11,0,0,0-1-4.1,9.13,9.13,0,0,0-2.71-2.91,24.12,24.12,0,0,0-4.06-2.25c-1.55-.68-3.21-1.36-5-2.05-1.26-.51-2.54-1.11-3.85-1.79a17.11,17.11,0,0,1-3.59-2.5,11.57,11.57,0,0,1-2.66-3.52,10.8,10.8,0,0,1-1-4.82,13.43,13.43,0,0,1,1.06-5.31,13.94,13.94,0,0,1,3-4.44,14.34,14.34,0,0,1,4.65-3,15.64,15.64,0,0,1,6-1.11,16.58,16.58,0,0,1,5.53.92,19.09,19.09,0,0,1,4.65,2.33,14.94,14.94,0,0,1,3.27,3l-2.9,4.55a12.94,12.94,0,0,0-2.56-2.49,13.5,13.5,0,0,0-3.57-1.9,12.54,12.54,0,0,0-4.33-.74,9.23,9.23,0,0,0-4.8,1.18,8.06,8.06,0,0,0-4.05,7,6.14,6.14,0,0,0,.78,3.2,7.27,7.27,0,0,0,2.09,2.23,16.28,16.28,0,0,0,3,1.61c1.1.47,2.23.92,3.38,1.34q3.12,1.23,5.89,2.52a22.78,22.78,0,0,1,4.88,3,12.6,12.6,0,0,1,3.31,4.13,13,13,0,0,1,1.21,5.83,13.7,13.7,0,0,1-2.19,7.85,13.85,13.85,0,0,1-6,5A20.74,20.74,0,0,1,474.05,52.22Z"></path>
    </g>
    <g id="built" fill="var(--neutral-back)">
        <path
            d="M174.39,120.38V70.05h11.78q7.32,0,11.4,3.25t4.09,9.44q0,8.17-7,11.29a13.61,13.61,0,0,1,8.49,4.07,12.33,12.33,0,0,1,3,8.61,13.54,13.54,0,0,1-1.92,7.34,12.38,12.38,0,0,1-5.49,4.7,20.44,20.44,0,0,1-8.51,1.63ZM180.58,92h4.34c3.47,0,6.14-.73,8-2.21a7.63,7.63,0,0,0,2.79-6.36,7.58,7.58,0,0,0-2.77-6.33c-1.85-1.45-4.53-2.18-8-2.18h-4.34Zm0,23.43h7.75q5.52,0,8.45-2.31a7.9,7.9,0,0,0,2.93-6.6,8.11,8.11,0,0,0-3-6.72q-3-2.4-8.4-2.4h-7.75Z"></path>
        <path
            d="M236.58,121.35q-8.9,0-13.42-4.75t-4.51-14.19V70.05h6.19v30.81q0,7.35,2.88,10.87t8.86,3.52q6,0,8.86-3.52t2.89-10.87V70.05h6.22v32.36q0,9.44-4.52,14.19T236.58,121.35Z"></path>
        <path d="M271.2,120.38V70.05h6.19v50.33Z"></path>
        <path d="M296.61,120.38V70.05h6.19v44.87H323v5.46Z"></path>
        <path d="M340.31,120.38V75.6H325.73V70.05h35.38V75.6H346.5v44.78Z"></path>
    </g>
    <g id="on" fill="var(--neutral-back)">
        <path
            d="M410.86,121.35a24.41,24.41,0,0,1-9.88-2,25.38,25.38,0,0,1-8.09-5.59,26.66,26.66,0,0,1,0-37,25.25,25.25,0,0,1,8.09-5.6,25.29,25.29,0,0,1,19.76,0,25.1,25.1,0,0,1,8.08,5.6,26.65,26.65,0,0,1,0,37,25.23,25.23,0,0,1-8.08,5.59A24.41,24.41,0,0,1,410.86,121.35Zm0-6a17.7,17.7,0,0,0,7.36-1.53,18.33,18.33,0,0,0,5.95-4.25,19.73,19.73,0,0,0,4-6.41,22.94,22.94,0,0,0,0-15.89,19.68,19.68,0,0,0-4-6.4,18.36,18.36,0,0,0-5.95-4.26,18.6,18.6,0,0,0-14.73,0,18.32,18.32,0,0,0-5.94,4.26,19.68,19.68,0,0,0-4,6.4,22.94,22.94,0,0,0,0,15.89,19.73,19.73,0,0,0,4,6.41,18.29,18.29,0,0,0,5.94,4.25A17.78,17.78,0,0,0,410.86,115.38Z"></path>
        <path
            d="M448.28,120.38V70.05h6.19l25.44,39.87V70.05h6.19v50.33h-6.19L454.47,80.55v39.83Z"></path>
    </g>
    <g id="years" fill="var(--neutral-back)">
        <path
            d="M91.87,189.58v-22l-17.6-28.33h7.48L95,161.12l13.24-21.86h7.47l-17.6,28.33v22Z"></path>
        <path
            d="M127,189.58V139.26h26.14v5.45h-20v16.93h19.22v5.43H133.23v17.05h20v5.46Z"></path>
        <path
            d="M163.42,189.58l19.92-50.32h5.77L209,189.58h-6.68l-5.58-14.67H175.69l-5.62,14.67Zm14.37-20.13h16.87l-8.45-21.93Z"></path>
        <path
            d="M219.45,189.58V139.26h14.28a20,20,0,0,1,8.66,1.73,13.12,13.12,0,0,1,5.66,5,14.6,14.6,0,0,1,2,7.79,15.37,15.37,0,0,1-1.55,7,13.2,13.2,0,0,1-4.44,5,16.44,16.44,0,0,1-6.88,2.56l16.66,21.17H246l-15.59-20.53h-4.73v20.53Zm6.19-25.8h6.41a14.8,14.8,0,0,0,6.19-1.19,9.17,9.17,0,0,0,4-3.4,9.67,9.67,0,0,0,1.4-5.26,8.77,8.77,0,0,0-3.06-7.11q-3.08-2.56-8.53-2.56h-6.41Z"></path>
        <path
            d="M278.87,190.56a19.82,19.82,0,0,1-6.74-1.06,20.79,20.79,0,0,1-5.1-2.57,22.89,22.89,0,0,1-3.5-3,30.47,30.47,0,0,1-2-2.33l3.39-4.82c.47.57,1.1,1.3,1.89,2.2a21,21,0,0,0,2.93,2.68,16.42,16.42,0,0,0,4,2.26,14.24,14.24,0,0,0,5.25.91,12.54,12.54,0,0,0,5-1,8.43,8.43,0,0,0,3.62-2.9,9.1,9.1,0,0,0,.38-8.86,9.05,9.05,0,0,0-2.72-2.91,24,24,0,0,0-4.05-2.25q-2.32-1-5-2.05c-1.26-.51-2.54-1.11-3.84-1.79a17.44,17.44,0,0,1-3.6-2.5,11.54,11.54,0,0,1-2.65-3.52,10.8,10.8,0,0,1-1-4.82,13.43,13.43,0,0,1,1.07-5.31,13.94,13.94,0,0,1,3-4.44,14.34,14.34,0,0,1,4.65-3.05,15.62,15.62,0,0,1,6-1.11,16.6,16.6,0,0,1,5.54.92,19.09,19.09,0,0,1,4.65,2.33,14.87,14.87,0,0,1,3.26,3l-2.89,4.55a13.21,13.21,0,0,0-2.56-2.49,13.82,13.82,0,0,0-3.57-1.91A12.82,12.82,0,0,0,280,144a9.24,9.24,0,0,0-4.81,1.18,8.07,8.07,0,0,0-4,7,6.14,6.14,0,0,0,.78,3.2,7.15,7.15,0,0,0,2.09,2.23,15.69,15.69,0,0,0,3,1.61c1.09.47,2.22.92,3.38,1.34q3.12,1.23,5.89,2.52a23.18,23.18,0,0,1,4.88,3,12.73,12.73,0,0,1,3.31,4.13,13,13,0,0,1,1.2,5.83,13.69,13.69,0,0,1-2.18,7.85,13.85,13.85,0,0,1-6,5A20.74,20.74,0,0,1,278.87,190.56Z"></path>
    </g>
    <g id="of" fill="var(--neutral-back)">
        <path
            d="M347,190.56a24.3,24.3,0,0,1-9.89-2,25.18,25.18,0,0,1-8.08-5.59,26.66,26.66,0,0,1,0-37,25.37,25.37,0,0,1,8.08-5.6,25.31,25.31,0,0,1,19.77,0A25.37,25.37,0,0,1,365,146a26.68,26.68,0,0,1,0,37,25.18,25.18,0,0,1-8.08,5.59A24.29,24.29,0,0,1,347,190.56Zm0-6a17.74,17.74,0,0,0,7.36-1.53,18.18,18.18,0,0,0,6-4.25,19.54,19.54,0,0,0,4-6.41,22.94,22.94,0,0,0,0-15.89,19.49,19.49,0,0,0-4-6.4,18.36,18.36,0,0,0-6-4.26,18.6,18.6,0,0,0-14.73,0,18.36,18.36,0,0,0-5.95,4.26,19.49,19.49,0,0,0-4,6.4,22.94,22.94,0,0,0,0,15.89,19.54,19.54,0,0,0,4,6.41,18.18,18.18,0,0,0,5.95,4.25A17.75,17.75,0,0,0,347,184.58Z"></path>
        <path
            d="M384.46,189.58V139.26h26.29v5.45H388.67l2-1.61v21.29l-2-2.75h20.71v5.43H388.67l2-2.74v25.25Z"></path>
    </g>
    <g id="happy" fill="var(--neutral-front)">
        <path
            d="M0,258.79V208.47H6.19v22.38H31.08V208.47h6.19v50.32H31.08V236.28H6.19v22.51Z"></path>
        <path
            d="M47.7,258.79l19.92-50.32h5.76L93.3,258.79H86.62L81,244.12H60l-5.61,14.67Zm14.37-20.13H78.93l-8.44-21.93Z"></path>
        <path
            d="M103.36,258.79V208.47h14.28a20.3,20.3,0,0,1,8.6,1.7,13,13,0,0,1,5.69,5,14.49,14.49,0,0,1,2,7.86,15.32,15.32,0,0,1-2,8,13.66,13.66,0,0,1-5.69,5.26,18.76,18.76,0,0,1-8.6,1.86h-8.08v20.71Zm6.2-25.8H116a14.78,14.78,0,0,0,6-1.16,9.4,9.4,0,0,0,4.08-3.36,9.28,9.28,0,0,0,1.48-5.33,8.68,8.68,0,0,0-5.56-8.57,15.3,15.3,0,0,0-6-1.1h-6.4Z"></path>
        <path
            d="M145.85,258.79V208.47h14.27a20.32,20.32,0,0,1,8.61,1.7,13,13,0,0,1,5.68,5,14.41,14.41,0,0,1,2,7.86,15.23,15.23,0,0,1-2,8,13.63,13.63,0,0,1-5.68,5.26,18.78,18.78,0,0,1-8.61,1.86H152v20.71ZM152,233h6.41a14.76,14.76,0,0,0,6-1.16,9,9,0,0,0,5.57-8.69,9.24,9.24,0,0,0-1.48-5.33,9.13,9.13,0,0,0-4.09-3.24,15.29,15.29,0,0,0-6-1.1H152Z"></path>
        <path
            d="M200.6,258.79v-22L183,208.47h7.47l13.21,21.86,13.24-21.86h7.47l-17.6,28.33v22Z"></path>
    </g>
    <g id="clients" fill="var(--neutral-front)">
        <path
            d="M273.52,259.77a27.69,27.69,0,0,1-10.56-2,26.6,26.6,0,0,1-8.57-5.55,26.21,26.21,0,0,1-5.71-28.81,25.66,25.66,0,0,1,5.72-8.31,26.57,26.57,0,0,1,8.54-5.55,27.6,27.6,0,0,1,10.55-2,28.24,28.24,0,0,1,8.86,1.36,24.7,24.7,0,0,1,7.28,3.7l-2.81,5.22a18.27,18.27,0,0,0-5.85-3.1,23,23,0,0,0-7.08-1.08,21.57,21.57,0,0,0-8.23,1.53,19.53,19.53,0,0,0-6.52,4.25,19.28,19.28,0,0,0-4.27,6.38,21.16,21.16,0,0,0,0,15.7,19.28,19.28,0,0,0,4.27,6.38,19.53,19.53,0,0,0,6.52,4.25,21.57,21.57,0,0,0,8.23,1.53,22.7,22.7,0,0,0,7.08-1.09,18.06,18.06,0,0,0,5.85-3.09l2.81,5.21a25.28,25.28,0,0,1-7.2,3.68A28,28,0,0,1,273.52,259.77Z"></path>
        <path d="M304,258.79V208.47h6.19v44.86h20.23v5.46Z"></path>
        <path d="M341.81,258.79V208.47H348v50.32Z"></path>
        <path
            d="M363.56,258.79V208.47H389.7v5.46H369.75v16.92H389v5.43H369.75v17.05H389.7v5.46Z"></path>
        <path
            d="M404.64,258.79V208.47h6.19l25.44,39.86V208.47h6.19v50.32h-6.19L410.83,219v39.83Z"></path>
        <path d="M466.92,258.79V214H452.34v-5.55h35.38V214h-14.6v44.77Z"></path>
        <path
            d="M510.54,259.77a19.82,19.82,0,0,1-6.74-1.06,21,21,0,0,1-5.1-2.57,22.89,22.89,0,0,1-3.5-3,30.47,30.47,0,0,1-2-2.33l3.39-4.82c.47.57,1.1,1.3,1.89,2.2a21,21,0,0,0,2.93,2.68,16.42,16.42,0,0,0,4.05,2.26,14.24,14.24,0,0,0,5.25.91,12.54,12.54,0,0,0,5-1,8.43,8.43,0,0,0,3.62-2.9,9.1,9.1,0,0,0,.38-8.86,9.05,9.05,0,0,0-2.72-2.91,23.62,23.62,0,0,0-4-2.25q-2.33-1-5-2c-1.27-.51-2.55-1.11-3.85-1.79a17.44,17.44,0,0,1-3.6-2.5,11.58,11.58,0,0,1-2.65-3.52,10.8,10.8,0,0,1-1-4.82,13.43,13.43,0,0,1,1.07-5.31,14.05,14.05,0,0,1,3-4.44,14.34,14.34,0,0,1,4.65-3.05,15.64,15.64,0,0,1,6-1.11,16.58,16.58,0,0,1,5.53.92,19.09,19.09,0,0,1,4.65,2.33,15.43,15.43,0,0,1,3.27,3l-2.9,4.55a13.53,13.53,0,0,0-6.13-4.39,12.54,12.54,0,0,0-4.33-.74,9.27,9.27,0,0,0-4.81,1.18,8.07,8.07,0,0,0-4,7,6.14,6.14,0,0,0,.78,3.2,7.15,7.15,0,0,0,2.09,2.23,15.69,15.69,0,0,0,3,1.61c1.1.47,2.22.92,3.38,1.34q3.12,1.23,5.89,2.52a23.18,23.18,0,0,1,4.88,3,12.73,12.73,0,0,1,3.31,4.13,13,13,0,0,1,1.2,5.83,13.69,13.69,0,0,1-2.18,7.85,13.85,13.85,0,0,1-6,5A20.74,20.74,0,0,1,510.54,259.77Z"></path>
    </g>
</svg>